<svg version="1" xmlns="http://www.w3.org/2000/svg" width="933.333" height="933.333" viewBox="0 0 700.000000 700.000000"><path d="M323.5 36.1c-25 2-56.3 8.8-79.8 17.3-44.6 16.2-82.6 40.4-116.2 74.1-50.3 50.2-80 110.8-90.2 183.5-2.4 17.4-2.4 60.4 0 78 7.5 53.7 26 101.3 55.9 143.4 46.6 65.4 116.8 110.9 195.4 126.5 22.5 4.5 33.9 5.5 61.4 5.5s38.8-1 61.4-5.5c67.4-13.3 129.5-49.1 174.9-100.9 42.1-48 67.3-103.9 76.4-169 2.4-17.5 2.4-60.5 0-78-6.4-46.3-21-87.8-44.1-125.4C556.4 84 442.7 26.4 323.5 36.1zM389 162.9c8 3 36.9 16.3 42.8 19.8 2.5 1.4 6.3 4.2 8.5 6.2 5.7 5.1 24.3 29.4 27.7 36.1 4.1 8.2 8.3 29.7 8.4 43 0 9.6-.3 11.5-3.8 22-8.6 25.8-11 30.2-23.4 43.2-4.1 4.3-7.3 8-7.1 8.2.2.1 4.5 2.9 9.4 6.2 15 9.8 18.2 13.6 27.9 33.5 11.7 23.8 12.2 26.1 10.7 46.9-1.7 23.3-2.6 27.7-8 38.3-8.2 16-19.2 32.9-25.6 39.3-6.9 6.9-31.2 24.5-37.8 27.3-8.5 3.7-33.7 10.2-46.3 12-31.7 4.6-70.9 5.3-97.4 1.6-20.3-2.8-20.9-3.2-26.6-16.6-4.1-9.5-4.7-16.4-2-23.8 1.4-3.9 1.6-16.4 1.6-122.6V265.3l-5.1-.5c-3.8-.4-6.6-1.6-11.8-5.1-5.5-3.9-7.4-5.9-10.9-12-4.1-7.1-4.2-7.6-4.2-16.4v-9l5.1-7.9c10.7-16.5 12.7-18.2 35.2-29.9 10.2-5.3 19.3-9.1 31.2-13 31.9-10.4 38.6-11.4 73.5-11.1 19.9.1 22 .3 28 2.5z"/><path d="M335.5 231.1c-3.3.5-8.2 1.5-11 2.2l-5 1.3-.3 37.7-.2 37.7h16.5c21.4 0 31.9-2.1 45.5-9.1 8.2-4.2 10.5-6 16.4-12.6 10.1-11.5 10.4-12.5 8.3-23.1-2.9-14.3-4.5-16.6-16.7-24.4-5.8-3.7-12.5-7.4-15-8.2-5.4-1.7-29.7-2.7-38.5-1.5zM325.8 384.7l-6.8.4v93.2l16.8-.7c20.1-.8 26.3-1.7 40.7-5.9 8.4-2.4 13.5-4.6 21.5-9.5 14.7-8.8 19.3-14.8 20.4-26.9.8-7.3-1.1-18.7-4-24.8-1.4-3.1-11.6-11.2-20.5-16.4-5.5-3.3-20.2-7.9-28.5-9.1-7.1-.9-24.1-1.1-39.6-.3z"/></svg>