<?xml version="1.0" standalone="no"?>
<!DOCTYPE svg PUBLIC "-//W3C//DTD SVG 20010904//EN"
 "http://www.w3.org/TR/2001/REC-SVG-20010904/DTD/svg10.dtd">
<svg version="1.0" xmlns="http://www.w3.org/2000/svg"
 width="512.000000pt" height="512.000000pt" viewBox="0 0 512.000000 512.000000"
 preserveAspectRatio="xMidYMid meet">
<metadata>
Created by potrace 1.11, written by Peter Selinger 2001-2013
</metadata>
<g transform="translate(0.000000,512.000000) scale(0.100000,-0.100000)"
fill="#000000" stroke="none">
<path d="M2260 5102 c-53 -7 -91 -35 -185 -139 -54 -60 -114 -126 -135 -148
-20 -22 -78 -87 -129 -145 -51 -58 -100 -112 -109 -120 -10 -8 -32 -33 -51
-55 -27 -32 -128 -145 -186 -209 -6 -6 -129 -144 -275 -306 -145 -162 -271
-302 -279 -311 -19 -19 -61 -66 -161 -179 -41 -47 -78 -87 -81 -90 -3 -3 -30
-32 -59 -65 -29 -33 -90 -100 -134 -149 -96 -105 -138 -161 -176 -236 -35 -69
-75 -190 -84 -253 -4 -27 -9 -59 -12 -70 -9 -47 -5 -286 6 -367 14 -103 51
-218 90 -282 l29 -48 -40 -77 c-67 -131 -90 -227 -90 -369 2 -360 180 -635
470 -728 42 -13 177 -56 301 -96 124 -39 236 -75 250 -80 14 -5 140 -45 280
-90 140 -45 309 -99 375 -120 66 -21 221 -70 345 -110 124 -39 243 -77 265
-85 22 -7 128 -41 235 -75 107 -34 215 -69 239 -78 24 -9 74 -16 110 -16 99
-1 98 -2 316 264 70 85 138 169 151 185 14 17 40 48 57 69 76 93 191 233 210
256 12 14 91 110 176 215 86 104 178 217 206 251 27 33 66 80 86 105 20 24 63
76 95 115 33 39 75 90 94 114 38 47 231 282 258 315 187 222 208 258 198 344
-4 30 -14 69 -22 86 -47 90 -69 222 -68 400 0 134 18 236 66 378 34 102 37
160 12 209 -21 41 -21 114 1 202 30 120 7 198 -77 257 -23 17 -48 24 -92 25
-69 3 -119 -18 -159 -65 -51 -62 -88 -227 -82 -373 l4 -97 -202 -249 c-111
-137 -312 -386 -447 -552 -135 -167 -250 -308 -255 -314 -6 -6 -35 -42 -65
-81 -30 -38 -57 -72 -60 -75 -3 -3 -41 -50 -85 -105 -44 -55 -82 -102 -85
-105 -3 -3 -32 -39 -65 -80 -33 -41 -62 -77 -65 -80 -3 -3 -41 -49 -84 -103
-44 -54 -82 -100 -86 -102 -6 -4 -56 10 -315 90 -66 21 -147 45 -180 55 -62
19 -382 117 -1075 330 -217 66 -440 134 -495 151 -235 71 -254 79 -281 114
-36 47 -55 123 -59 240 -6 151 27 230 113 271 66 31 117 21 487 -91 193 -59
357 -108 365 -110 8 -2 103 -31 210 -64 988 -300 1135 -343 1187 -339 28 3 62
12 76 21 14 9 123 132 244 274 120 142 228 269 240 283 33 39 206 242 228 269
11 13 47 56 81 95 76 90 287 339 519 615 11 13 25 29 30 35 93 101 514 609
527 635 36 71 12 176 -49 218 -16 11 -46 25 -68 31 -37 11 -278 67 -335 78
-14 3 -52 11 -85 19 -33 8 -161 37 -285 65 -124 28 -261 59 -305 70 -44 10
-96 22 -115 25 -19 3 -60 12 -90 20 -30 8 -86 21 -125 29 -38 8 -160 36 -270
61 -110 25 -209 47 -220 50 -11 2 -88 20 -171 39 -83 19 -162 37 -175 40 -13
2 -73 16 -134 30 -167 38 -188 42 -215 38z m75 -694 c22 -5 47 -12 55 -13 8
-2 162 -40 342 -84 180 -44 338 -83 350 -85 13 -2 88 -21 168 -41 80 -20 158
-39 175 -42 56 -9 147 -41 166 -59 34 -30 23 -59 -59 -156 -88 -105 -139 -138
-212 -138 -25 0 -120 18 -210 41 -91 22 -172 42 -180 44 -8 2 -82 20 -165 40
-82 20 -157 38 -165 40 -8 2 -35 8 -60 14 -25 7 -53 14 -64 16 -218 51 -487
121 -508 131 -62 32 -54 66 37 171 81 93 112 120 152 131 41 11 114 7 178 -10z
m2101 -1865 c2 -56 25 -174 50 -251 l14 -43 -117 -142 c-64 -78 -209 -254
-321 -390 -112 -136 -211 -258 -222 -270 -20 -24 -153 -187 -210 -257 -33 -41
-54 -66 -135 -165 -19 -22 -91 -110 -161 -195 -70 -85 -138 -169 -153 -186
-14 -17 -33 -40 -41 -50 -8 -10 -42 -52 -75 -92 -70 -86 -50 -84 -255 -18 -74
24 -223 72 -330 106 -107 34 -269 86 -360 115 -186 60 -547 176 -905 290 -484
154 -484 154 -522 194 -47 49 -70 97 -88 181 -25 117 -6 254 44 319 l18 23
199 -62 c109 -34 206 -63 214 -65 14 -4 458 -140 625 -192 44 -13 96 -29 115
-35 19 -6 217 -66 440 -135 693 -213 764 -234 807 -235 24 0 61 9 87 21 46 23
50 27 437 506 54 66 149 183 211 260 63 77 190 235 283 350 93 116 174 215
180 221 5 6 46 57 90 112 44 56 80 102 80 102 1 0 1 -8 1 -17z"/>
</g>
</svg>
